<svg width="15" height="9" viewBox="0 0 15 9" fill="none" xmlns="http://www.w3.org/2000/svg">
<path d="M13.9996 0.72876C14.0789 0.72876 14.1578 0.744352 14.231 0.774658C14.3043 0.805002 14.3712 0.849479 14.4273 0.905518C14.4834 0.961596 14.5278 1.02855 14.5582 1.10181C14.5885 1.17514 14.6041 1.25388 14.6041 1.33325C14.6041 1.41264 14.5885 1.49135 14.5582 1.5647C14.5278 1.63798 14.4834 1.70489 14.4273 1.76099L7.76031 8.427C7.70426 8.48312 7.63826 8.52844 7.565 8.55884C7.49175 8.58921 7.41286 8.6047 7.33356 8.60474C7.25425 8.60474 7.17538 8.58917 7.10211 8.55884C7.06558 8.54369 7.03035 8.52503 6.99762 8.50317L6.90582 8.427L0.238831 1.76099C0.125486 1.64762 0.0620728 1.49356 0.0620728 1.33325C0.0620847 1.17293 0.125469 1.01888 0.238831 0.905518C0.352193 0.792156 0.506248 0.728772 0.666565 0.72876C0.826877 0.72876 0.980931 0.792173 1.0943 0.905518L7.28864 7.10181L7.33356 7.14575L7.3775 7.10181L13.5728 0.905518C13.6288 0.849626 13.6951 0.804977 13.7681 0.774658C13.8414 0.744325 13.9203 0.728808 13.9996 0.72876Z" fill="#16211D" stroke="#16211D" stroke-width="0.125"/>
</svg>
