<svg width="16" height="16" viewBox="0 0 16 16" fill="none" xmlns="http://www.w3.org/2000/svg">
<path fill-rule="evenodd" clip-rule="evenodd" d="M10.4877 10.3974V10.3265C10.3996 10.3187 10.3115 10.3029 10.2479 10.2711C10.1598 10.2316 10.0961 10.1607 10.0639 10.0344C10.0399 9.91592 10.032 9.73465 10.032 9.48211V8.79577L10.3839 8.46423C10.6878 8.59049 10.7837 8.82715 10.8717 9.26134C10.9916 9.97944 11.0958 10.2556 11.2955 10.3977H14.4637V10.3269C14.3756 10.3191 14.3115 10.3032 14.2479 10.2796C14.1759 10.2482 14.128 10.1851 14.0961 10.0902C14.0482 9.9562 14.0242 9.75866 14.0242 9.37986V8.71715C14.0242 8.51187 14.032 8.25158 14.0482 8.07806C14.104 7.62025 14.3119 7.22595 14.4719 7.22595C14.549 7.22595 14.5769 7.31891 14.6127 7.43859C14.6288 7.4932 14.6469 7.55324 14.672 7.6125C14.7601 7.82553 14.9118 7.97542 15.2397 7.97542C15.5676 7.97542 15.8078 7.73063 15.8078 7.36771C15.8078 7.17056 15.7437 7.02067 15.6478 6.91803C15.5196 6.78401 15.3278 6.71275 15.0958 6.71275C14.7998 6.71275 14.5918 6.81539 14.4562 6.93352C14.2962 7.06754 14.1362 7.27282 14.0403 7.64387H14.0163C14.0163 7.53813 14.0214 7.33905 14.0257 7.1632C14.0293 7.02415 14.0324 6.89944 14.0324 6.84715C14.0324 6.79989 14.0163 6.79176 13.9766 6.79176H12.4159H10.8564V6.86264C10.9523 6.87039 11.0483 6.88627 11.1285 6.92577C11.2484 6.98116 11.2723 7.06792 11.2723 7.14655C11.2723 7.3282 11.1442 7.48585 10.9284 7.69887L10.0328 8.59049V5.7181C10.0328 5.4369 10.0395 5.28081 10.0466 5.11116C10.0474 5.09528 10.0478 5.0794 10.0486 5.06313C10.0486 5.00775 10.0324 5 9.99273 5H8.32118V5.07088C8.43322 5.07863 8.4973 5.08676 8.56924 5.13401C8.64118 5.17352 8.68914 5.25254 8.71312 5.3788C8.72924 5.48144 8.72924 5.70222 8.72924 5.82849V7.64116C8.52442 7.13454 8.01101 6.71236 7.14496 6.71236C6.44049 6.71236 5.80403 7.03539 5.45808 7.59972C5.40265 6.63141 4.93209 5.90673 4.26378 5.53644C3.87971 5.32342 3.38398 5.21303 2.77622 5.21303H0V5.29204C0.103784 5.29979 0.191843 5.31567 0.272039 5.35518C0.375823 5.40243 0.45602 5.48144 0.50398 5.58408C0.568059 5.74173 0.583784 5.97877 0.583784 6.27856V9.33222C0.583784 9.63201 0.567666 9.86866 0.50398 10.0267C0.45602 10.1293 0.384079 10.2002 0.272039 10.2556C0.200098 10.2951 0.104177 10.311 0 10.3187V10.3977H3.03921C3.54319 10.3977 3.95912 10.2479 4.27872 10.0662C4.68875 9.8307 5.01228 9.46004 5.21671 9.00067C5.28432 9.39109 5.46162 9.7482 5.77612 10.0108C6.11184 10.2947 6.58398 10.4686 7.19961 10.4686C8.04128 10.4686 8.49219 10.0546 8.72806 9.54215C8.72806 9.76641 8.7257 9.90507 8.69622 10.0503C8.67224 10.1607 8.60029 10.2238 8.51224 10.2715C8.45641 10.3032 8.38408 10.3187 8.29641 10.3269V10.3977H10.4877V10.3974ZM6.54388 8.43246H8.72806V9.13352L8.71115 9.20595C8.56727 9.70289 8.19145 10.232 7.45553 10.232C7.16776 10.232 6.9598 10.1375 6.81553 9.97169C6.63941 9.78229 6.54349 9.3481 6.54349 8.51961V8.43285L6.54388 8.43246ZM12.3829 6.86806C12.2473 6.8944 12.0963 6.9494 11.9112 7.05165C11.7673 7.13842 11.5672 7.28831 11.2794 7.56447L10.8953 7.95102C11.5672 8.07729 11.9029 8.33757 12.055 8.84264C12.0947 8.97239 12.1293 9.09014 12.1612 9.19782C12.2756 9.58669 12.3511 9.84349 12.4949 10.0658C12.5291 10.115 12.5657 10.1592 12.6078 10.1975C12.6412 10.1584 12.6659 10.1084 12.688 10.0344C12.7041 9.90042 12.7198 9.67926 12.7198 9.4031V7.62761C12.7198 7.50134 12.7198 7.27243 12.6958 7.16979C12.6797 7.04352 12.6317 6.97264 12.5598 6.925C12.5063 6.89324 12.4458 6.87581 12.3825 6.86768L12.3829 6.86806ZM15.2881 10.5C14.856 10.5 14.5844 10.2002 14.5844 9.82141C14.5844 9.44261 14.8564 9.15056 15.2881 9.15056C15.7197 9.15056 16 9.45035 16 9.82141C16 10.1925 15.728 10.5 15.2881 10.5ZM6.79194 7.02803C6.65592 7.1938 6.56786 7.65937 6.54388 8.2907H7.44767C7.61553 8.2907 7.66349 8.23532 7.66349 8.0068C7.66349 7.51761 7.62339 7.19419 7.51135 7.00479C7.43115 6.90215 7.33523 6.84715 7.15165 6.84715C7.00776 6.84715 6.87961 6.91028 6.79194 7.0288V7.02803ZM3.43115 5.78123C3.71106 6.16778 3.88717 6.90951 3.88717 7.79338C3.88717 8.82715 3.70319 9.46623 3.46339 9.84504C3.27155 10.1293 2.99951 10.2316 2.65553 10.2316H2.47155C2.27971 10.2316 2.1598 10.1998 2.11184 10.0976C2.03086 10.0031 2.03125 9.85511 2.03165 9.5987C2.03165 9.57662 2.03165 9.55338 2.03165 9.52975V5.86799C2.03165 5.84204 2.03165 5.81648 2.03086 5.79208C2.02889 5.63676 2.02771 5.51011 2.10359 5.44194C2.15941 5.38655 2.23174 5.37106 2.42359 5.37106H2.59145C2.95941 5.37106 3.22319 5.45782 3.43115 5.78123Z" fill="#536B31"/>
</svg>
