<svg width="32" height="32" viewBox="0 0 32 32" fill="none" xmlns="http://www.w3.org/2000/svg">
<path fill-rule="evenodd" clip-rule="evenodd" d="M20.9753 20.7947V20.653C20.7992 20.6375 20.6231 20.6057 20.4957 20.5422C20.3196 20.4632 20.1922 20.3214 20.1278 20.0689C20.0798 19.8318 20.0641 19.4693 20.0641 18.9642V17.5915L20.7678 16.9285C21.3755 17.181 21.5674 17.6543 21.7435 18.5227C21.9833 19.9589 22.1916 20.5112 22.5911 20.7955H28.9274V20.6537C28.7513 20.6382 28.6231 20.6065 28.4957 20.5592C28.3518 20.4965 28.2559 20.3702 28.1922 20.1804C28.0963 19.9124 28.0484 19.5173 28.0484 18.7597V17.4343C28.0484 17.0237 28.0641 16.5032 28.0963 16.1561C28.208 15.2405 28.6239 14.4519 28.9439 14.4519C29.098 14.4519 29.1538 14.6378 29.2254 14.8772C29.2576 14.9864 29.2938 15.1065 29.3441 15.225C29.5202 15.6511 29.8237 15.9508 30.4794 15.9508C31.1351 15.9508 31.6155 15.4613 31.6155 14.7354C31.6155 14.3411 31.4874 14.0413 31.2955 13.8361C31.0392 13.568 30.6555 13.4255 30.1916 13.4255C29.5996 13.4255 29.1837 13.6308 28.9124 13.867C28.5924 14.1351 28.2724 14.5456 28.0806 15.2877H28.0326C28.0326 15.0763 28.0428 14.6781 28.0515 14.3264C28.0586 14.0483 28.0649 13.7989 28.0649 13.6943C28.0649 13.5998 28.0326 13.5835 27.9532 13.5835H24.8318H21.7128V13.7253C21.9047 13.7408 22.0965 13.7725 22.2569 13.8515C22.4967 13.9623 22.5447 14.1358 22.5447 14.2931C22.5447 14.6564 22.2884 14.9717 21.8567 15.3977L20.0657 17.181V11.4362C20.0657 10.8738 20.079 10.5616 20.0932 10.2223C20.0947 10.1906 20.0955 10.1588 20.0971 10.1263C20.0971 10.0155 20.0649 10 19.9855 10H16.6424V10.1418C16.8664 10.1573 16.9946 10.1735 17.1385 10.268C17.2824 10.347 17.3783 10.5051 17.4262 10.7576C17.4585 10.9629 17.4585 11.4044 17.4585 11.657V15.2823C17.0488 14.2691 16.022 13.4247 14.2899 13.4247C12.881 13.4247 11.6081 14.0708 10.9162 15.1994C10.8053 13.2628 9.86418 11.8135 8.52757 11.0729C7.75941 10.6468 6.76796 10.4261 5.55243 10.4261H0V10.5841C0.207568 10.5996 0.383686 10.6313 0.544079 10.7104C0.751646 10.8049 0.912039 10.9629 1.00796 11.1682C1.13612 11.4835 1.16757 11.9575 1.16757 12.5571V18.6644C1.16757 19.264 1.13533 19.7373 1.00796 20.0534C0.912039 20.2587 0.768157 20.4004 0.544079 20.5112C0.400197 20.5902 0.208354 20.622 0 20.6375V20.7955H6.07843C7.08639 20.7955 7.91823 20.4957 8.55744 20.1324C9.37749 19.6614 10.0246 18.9201 10.4334 18.0013C10.5686 18.7822 10.9232 19.4964 11.5522 20.0216C12.2237 20.5894 13.168 20.9373 14.3992 20.9373C16.0826 20.9373 16.9844 20.1092 17.4561 19.0843C17.4561 19.5328 17.4514 19.8101 17.3924 20.1006C17.3445 20.3214 17.2006 20.4477 17.0245 20.543C16.9128 20.6065 16.7682 20.6375 16.5928 20.6537V20.7955H20.9753V20.7947ZM13.0878 16.8649H17.4561V18.267L17.4223 18.4119C17.1345 19.4058 16.3829 20.4639 14.9111 20.4639C14.3355 20.4639 13.9196 20.2749 13.6311 19.9434C13.2788 19.5646 13.087 18.6962 13.087 17.0392V16.8657L13.0878 16.8649ZM24.7658 13.7361C24.4945 13.7888 24.1926 13.8988 23.8223 14.1033C23.5345 14.2768 23.1343 14.5766 22.5588 15.1289L21.7907 15.902C23.1343 16.1546 23.8058 16.6751 24.1101 17.6853C24.1895 17.9448 24.2587 18.1803 24.3224 18.3956C24.5512 19.1734 24.7021 19.687 24.9899 20.1316C25.0583 20.23 25.1314 20.3183 25.2155 20.395C25.2824 20.3168 25.3319 20.2168 25.3759 20.0689C25.4082 19.8008 25.4396 19.3585 25.4396 18.8062V15.2552C25.4396 15.0027 25.4396 14.5449 25.3916 14.3396C25.3594 14.087 25.2635 13.9453 25.1196 13.85C25.0127 13.7865 24.8916 13.7516 24.765 13.7354L24.7658 13.7361ZM30.5761 21C29.712 21 29.1687 20.4004 29.1687 19.6428C29.1687 18.8852 29.7128 18.3011 30.5761 18.3011C31.4394 18.3011 32 18.9007 32 19.6428C32 20.3849 31.4559 21 30.5761 21ZM13.5839 14.0561C13.3118 14.3876 13.1357 15.3187 13.0878 16.5814H14.8953C15.2311 16.5814 15.327 16.4706 15.327 16.0136C15.327 15.0352 15.2468 14.3884 15.0227 14.0096C14.8623 13.8043 14.6705 13.6943 14.3033 13.6943C14.0155 13.6943 13.7592 13.8206 13.5839 14.0576V14.0561ZM6.86231 11.5625C7.42211 12.3356 7.77435 13.819 7.77435 15.5868C7.77435 17.6543 7.40639 18.9325 6.92678 19.6901C6.5431 20.2587 5.99902 20.4632 5.31106 20.4632H4.9431C4.55941 20.4632 4.31961 20.3996 4.22369 20.1951C4.06172 20.0061 4.06251 19.7102 4.06329 19.1974C4.06329 19.1532 4.06329 19.1068 4.06329 19.0595V11.736C4.06329 11.6841 4.06329 11.633 4.06172 11.5842C4.05779 11.2735 4.05543 11.0202 4.20717 10.8839C4.31882 10.7731 4.46349 10.7421 4.84717 10.7421H5.1829C5.91882 10.7421 6.44639 10.9156 6.86231 11.5625Z" fill="#536B31"/>
</svg>
